<?xml version="1.0" encoding="UTF-8" standalone="no"?>
<svg width="19px" height="19px" viewBox="0 0 19 19" version="1.1" xmlns="http://www.w3.org/2000/svg" xmlns:xlink="http://www.w3.org/1999/xlink">
    <!-- Generator: Sketch 3.7 (28169) - http://www.bohemiancoding.com/sketch -->
    <title>grid-icon</title>
    <desc>Created with Sketch.</desc>
    <defs></defs>
    <g id="Symbols" stroke="none" stroke-width="1" fill="none" fill-rule="evenodd">
        <g id="Bottom-Navigarion---All-closed" transform="translate(-251.000000, -14.000000)" fill="#EE340B">
            <path d="M251,14 L256,14 L256,19 L251,19 L251,14 Z M258,14 L263,14 L263,19 L258,19 L258,14 Z M265,14 L270,14 L270,19 L265,19 L265,14 Z M251,21 L256,21 L256,26 L251,26 L251,21 Z M258,21 L263,21 L263,26 L258,26 L258,21 Z M265,21 L270,21 L270,26 L265,26 L265,21 Z M251,28 L256,28 L256,33 L251,33 L251,28 Z M258,28 L263,28 L263,33 L258,33 L258,28 Z M265,28 L270,28 L270,33 L265,33 L265,28 Z" id="grid-icon"></path>
        </g>
    </g>
</svg>